<?xml version="1.0" encoding="iso-8859-1"?>
<!-- Generator: Adobe Illustrator 28.2.0, SVG Export Plug-In . SVG Version: 6.00 Build 0)  -->
<svg version="1.1" id="Layer_1" xmlns="http://www.w3.org/2000/svg" xmlns:xlink="http://www.w3.org/1999/xlink" x="0px" y="0px"
	 viewBox="0 0 762 761" style="enable-background:new 0 0 762 761;" xml:space="preserve">
<g>
	<circle style="fill:#456650;" cx="381" cy="380.5" r="380.5"/>
	<path style="fill:#FFFFFF;" d="M254.304,689.608c40.533,17.365,88.176,15.882,132.732,14.838
		c29.789-0.697,54.648,4.698,82.253-2.245c123.748-22.673,230.923-147.293,243.752-289.1l0,0l0,0
		c1.834-20.263,1.741-40.878-0.507-61.593c-13.098-98.563-75.293-167.79-143.959-220.553
		c-39.767-30.557-74.202-62.451-121.992-73.535c-58.366-13.537-119.812-11.426-177.244,9.077
		c-49.884,18.402-94.056,49.431-129.376,88.782c-10.251-7.737-18.049-12.461-18.049-12.461s4.029,9.181,10.236,21.471
		C58.552,252.206,27.665,377.722,71.695,497.329c33.093,81.385,93.294,147.728,165.277,184.17L254.304,689.608z M145.57,188.948
		c5.57,9.415,11.623,18.551,17.592,25.515c-32.66,41.609-54.774,92.69-60.429,148.997
		c-9.902,126.034,66.603,236.108,165.643,282.969c-2.6,3.583-5.581,7.374-9.041,11.4c-30.83-14.589-59.916-34.902-85.825-61.08
		c-9.85-10.259-45.801-32.655-54.159-44.047c-78.055-106.366-62.923-245.878,18.224-353.644
		C140.179,195.605,142.857,192.251,145.57,188.948z M680.767,409.371c-3.962-0.199-8.138-0.31-12.439-0.292
		c0.024-5.165-0.058-10.329-0.368-15.473c-8.993-114.471-80.361-205.921-170.942-252.672c2.148-11.108,5.049-21.062,7.744-28.951
		C616.106,158.522,687.902,285.879,680.767,409.371z M640.718,353.214c3.533,19.445,4.984,38.639,4.62,57.396
		c-4.412,0.611-8.792,1.42-13.05,2.492c-3.745,0.942-7.374,1.647-10.915,2.228c4.12-91.956-35.699-186.389-114.473-228.979
		c-7.701-4.393-15.542-8.3-23.47-11.822c3.358-5.276,6.408-10.636,8.854-16.685C565.642,185.488,621.418,262.169,640.718,353.214z
		 M186.346,413.127c-6.88-59.522,12.03-111.228,43.82-150.324c13.743,9.038,24.149,15.754,24.149,15.754s-6.213-6.668-19.263-21.541
		c43.014-49.217,106.749-76.665,162.813-71.71c15.808,0.416,31.235,2.931,46.088,7.205c-1.905,1.931-3.864,3.821-5.88,5.653
		c-13.894,12.63-20.564,22.85-23.669,30.384c-6.685-0.833-13.457-1.347-20.318-1.463c-31.889-0.546-61.691,6.789-87.544,20.108
		c-27.213,14.02-46.396,44.928-62.685,70.002c-17.754,27.332-40.354,32.294-39.735,67.27c1.31,73.801,54.402,147.78,124.269,180.949
		c-5.384,6.211-13.808,15.25-25.005,25.167C244.787,556.969,198.291,496.785,186.346,413.127z M440.623,233.675
		c8.389-4.964,16.596-12.279,21.339-22.987c1.583-3.574,3.237-6.876,4.925-9.98c26.635,11.489,50.778,28.895,70.913,50.7
		c33.818,14.927,41.908,64.917,49.998,94.909c5.568,22.941,8.547,46.933,8.809,70.773c-5.369-0.128-10.119-0.565-14.124-1.111
		c0.052-1.615,0.134-3.204,0.108-4.878C581.327,327.503,520.748,255.324,440.623,233.675z M545.413,341.75
		c7.32,16.505,11.489,34.816,11.799,54.549c0.849,54.387-35.385,96.16-79.062,125.596c-24.606,16.583-30.828,49.279-77.954,34.974
		c-49.184-14.931-88.819-16.572-121.401-47.104c-23.385-21.915-49.609-53.005-50.239-87.994
		c-0.797-44.253,21.264-89.848,55.194-122.773c9.259-8.984,28.771-8.35,39.574-15.163c24.522-15.466,43.075-33.281,71.792-32.761
		C462.489,252.288,521.192,287.137,545.413,341.75z M332.316,567.211c21.365,9.59,44.196,15.403,67.553,16.2
		c57.448,1.961,98.685-37.751,132.184-76.434c23.344-26.955,46.147-48.16,49.938-83.751c3.947,2.08,8.781,4.016,14.526,5.341
		c-2.007,75.96-32.422,148.354-97.708,177.695c-55.363,22.805-120.189,19.969-176.63-5.988
		C326.174,587.774,329.867,575.494,332.316,567.211z M464.833,167.111c-85.234-29.947-178.695-9.647-242.891,74.836
		c-0.483-0.559-0.94-1.085-1.433-1.658c-12.312-14.28-17.912-17.627-23.167-22.058c49.344-53.088,118.753-84.377,184.135-87.278
		c32.744,0.61,64.252,7.941,93.355,20.625C471.934,156.457,468.594,161.722,464.833,167.111z M185.042,232.445
		c8.772,6.124,19.242,13.191,29.358,19.93c-5.194,7.534-10.184,15.501-14.92,23.957c-21.482,39.825-53.759,89.415-51.289,132.738
		c1.312,23.019,22.101,43.688,29.568,65.822c10.233,30.33,33.225,55.605,54.081,81.381c18.384,18.934,37.933,36.427,58.69,50.375
		c-4.299,7.614-7.519,16.007-13.383,26.247c-77.04-40.6-137.073-120.334-147.172-231.495
		C127.125,334.193,149.324,276.836,185.042,232.445z M315.235,621.148c27.18,13.619,56.289,20.398,87.431,16.15
		c60.124,4.057,115.01-19.963,154.9-62.065c37.039-39.159,57.627-91.369,62.795-145.44c1.879-0.201,3.773-0.422,5.759-0.769
		c6.044-1.056,12.299-2.167,18.555-3.291c-6.127,83.468-49.154,156.674-112.919,200.539
		c-70.076,43.118-153.773,47.625-226.714,19.335C307.58,641.822,311.284,632.442,315.235,621.148z M386.046,669.992
		c37.966,1.901,74.356-4.315,107.602-17.142c97.505-23.513,168.574-127.064,174.313-231.345c4.18-0.766,8.222-1.513,12.065-2.223
		c-3.791,40.992-11.682,79.709-34.632,116.22c-9.16,15.503-21.591,53.982-32.627,67.11
		c-83.307,99.083-218.126,107.546-332.026,64.315c4.639-3.323,9.225-6.627,13.288-9.963
		C323.78,667.36,354.969,672.105,386.046,669.992z M488.424,125.38c0,0-1.483,3.533-4.334,9.248
		c-43.118-19.85-89.98-29.735-136.2-27.41c-63.581,7.817-123.46,40.012-168.308,88.081c-5.172-8.162-12.106-15.953-19.387-22.922
		c58.695-61.697,138.047-92.259,219.005-89.553c40.683,0.615,79.761,9.569,115.564,25.21c1.706,0.626,3.392,1.295,5.081,1.957
		L488.424,125.38z"/>
</g>
</svg>
